<?xml version="1.0" standalone="no"?>
<!DOCTYPE svg PUBLIC "-//W3C//DTD SVG 20010904//EN"
 "http://www.w3.org/TR/2001/REC-SVG-20010904/DTD/svg10.dtd">
<svg version="1.0" xmlns="http://www.w3.org/2000/svg"
 width="700.000000pt" height="700.000000pt" viewBox="0 0 700.000000 700.000000"
 preserveAspectRatio="xMidYMid meet">
<metadata>
Created by potrace 1.14, written by Peter Selinger 2001-2017
</metadata>
<g transform="translate(0.000000,700.000000) scale(0.100000,-0.100000)"
fill="#000000" stroke="none">
<path d="M3328 6905 c-2 -2 -46 -6 -98 -9 -688 -49 -1388 -337 -1930 -795
-107 -90 -360 -349 -447 -457 -379 -471 -628 -1030 -718 -1614 -52 -339 -54
-695 -5 -1025 6 -38 13 -86 16 -105 13 -87 60 -277 101 -410 170 -549 479
-1047 904 -1455 208 -199 388 -333 684 -508 234 -139 686 -309 962 -362 32 -6
250 -41 303 -49 177 -25 661 -26 792 -1 11 2 40 7 64 9 68 8 174 26 244 41 14
3 34 7 45 9 56 11 261 69 338 95 312 106 634 271 892 455 316 226 639 558 855
881 123 183 237 393 300 550 13 33 30 71 37 85 7 14 13 32 13 41 0 8 4 19 9
25 14 14 98 287 126 409 26 116 52 255 61 327 2 24 7 57 9 73 10 65 19 258 19
405 0 453 -83 862 -264 1305 -28 69 -148 308 -191 382 -420 714 -1058 1240
-1831 1511 -101 35 -307 95 -373 108 -11 2 -31 6 -45 9 -65 14 -274 46 -326
50 -33 3 -77 8 -99 11 -37 6 -442 13 -447 9z m472 -198 c19 -3 64 -7 100 -11
36 -4 72 -9 80 -11 8 -2 33 -7 55 -10 39 -4 61 -9 115 -20 14 -3 34 -7 45 -9
71 -15 266 -70 355 -101 943 -329 1679 -1070 2002 -2015 56 -166 108 -390 143
-620 27 -179 27 -645 1 -810 -3 -14 -12 -72 -21 -130 -84 -525 -309 -1034
-649 -1465 -84 -107 -131 -160 -251 -281 -80 -81 -115 -114 -221 -204 -70 -60
-250 -190 -343 -248 -379 -235 -762 -378 -1227 -457 -17 -2 -55 -7 -85 -10
-30 -3 -88 -9 -129 -14 -79 -9 -504 -7 -580 3 -25 3 -67 8 -95 11 -95 11 -273
46 -406 80 -694 176 -1327 601 -1763 1182 -338 451 -549 972 -621 1533 -3 25
-8 63 -11 85 -9 72 -12 498 -3 580 16 157 20 191 29 240 5 28 12 67 15 88 11
82 67 297 111 425 123 367 306 701 550 1005 103 129 314 344 438 446 237 197
541 385 786 485 36 15 79 33 95 41 149 67 524 167 715 191 30 3 64 8 75 10 11
2 58 7 105 10 47 4 87 8 88 10 5 4 461 -4 502 -9z"/>
<path d="M1400 5513 c0 -2 20 -54 45 -114 l45 -110 0 -1945 0 -1944 677 2 676
3 0 268 c0 148 4 262 8 255 4 -7 30 -71 59 -143 28 -71 58 -143 65 -160 7 -16
31 -74 52 -127 l38 -98 200 0 200 0 34 -88 c18 -48 37 -90 41 -95 3 -4 23 35
44 88 l38 95 196 0 197 0 110 272 110 272 3 -272 2 -272 675 0 c533 0 675 3
676 13 0 6 0 879 0 1939 l0 1927 49 120 48 119 -711 -1 -711 -2 -343 -855
c-189 -470 -351 -877 -360 -903 -9 -26 -19 -44 -23 -40 -4 4 -18 37 -32 73
-44 114 -680 1694 -689 1712 -8 15 -66 16 -714 16 -388 0 -705 -2 -705 -5z
m461 -193 c0 -5 1 -37 1 -70 0 -114 5 -105 -57 -105 l-54 0 -29 70 c-53 126
-57 115 47 115 53 0 91 -4 92 -10z m361 -2 c4 -11 3 -49 -1 -104 -1 -7 -9 -14
-20 -17 -16 -4 -18 2 -18 64 0 59 2 69 17 69 10 0 20 -6 22 -12z m2678 -58 c0
-68 -1 -70 -20 -60 -17 9 -20 21 -20 70 0 53 2 60 20 60 18 0 20 -7 20 -70z
m501 48 c-5 -13 -22 -54 -38 -93 l-28 -70 -55 0 -55 0 -3 93 -3 92 95 0 c95 0
95 0 87 -22z m-2277 -1059 l319 -795 -20 -44 c-11 -25 -33 -78 -48 -117 -25
-65 -45 -93 -45 -63 0 6 -9 29 -19 53 -10 23 -51 123 -91 222 -40 99 -78 194
-85 210 -7 17 -70 172 -140 345 -70 173 -143 353 -162 400 -33 84 -34 87 -39
275 -3 104 -6 223 -8 264 -3 57 -1 71 8 59 6 -8 154 -373 330 -809z m1170 664
c-12 -410 -3 -356 -83 -553 -40 -96 -75 -184 -80 -195 -5 -11 -14 -33 -21 -50
-220 -543 -295 -727 -310 -760 -9 -22 -26 -61 -36 -87 -10 -27 -21 -48 -24
-48 -3 0 -26 54 -51 119 l-46 119 289 724 c159 397 300 748 313 778 13 30 28
67 34 83 6 15 13 27 15 27 3 0 3 -71 0 -157z m-2514 -338 l93 -230 3 -135 c2
-74 5 -198 8 -275 17 -441 20 -649 21 -1100 l0 -500 -22 -3 c-21 -3 -21 -7
-21 -175 0 -95 -1 -178 -1 -185 -1 -10 -24 -12 -93 -10 l-93 3 0 1427 c0 785
3 1424 6 1420 3 -4 48 -110 99 -237z m3626 -1190 l0 -1425 -93 0 -93 0 -2 187
c-3 180 -4 188 -23 188 -20 0 -20 7 -20 460 1 253 4 561 8 685 9 264 14 415
22 674 l6 188 50 127 c28 69 57 140 64 156 21 50 54 132 65 159 5 14 11 26 13
26 1 0 3 -641 3 -1425z m-3225 1196 c4 0 17 -29 30 -63 23 -60 24 -74 24 -310
0 -136 -3 -244 -6 -240 -4 4 -43 98 -88 210 -79 196 -82 207 -86 299 -3 52 -3
98 -1 102 4 5 102 7 127 2z m416 -31 c8 -19 16 -73 18 -120 9 -214 15 -443 11
-439 -2 2 -48 112 -101 244 -71 172 -99 254 -101 290 -1 27 2 52 6 55 5 3 41
5 81 5 l71 -1 15 -34z m2061 -11 c3 -39 -13 -86 -98 -300 -56 -140 -104 -256
-106 -258 -2 -2 -1 45 1 105 2 60 7 178 10 263 3 113 9 166 21 196 l17 40 76
0 76 0 3 -46z m365 42 c12 -2 2 -201 -12 -236 -7 -16 -18 -43 -26 -60 -7 -16
-41 -97 -74 -180 -33 -82 -61 -148 -62 -145 0 3 -2 113 -3 245 l-2 240 29 70
28 71 57 -2 c31 -1 61 -2 65 -3z m-2184 -628 c8 -21 77 -193 154 -383 77 -190
147 -365 157 -390 10 -25 34 -85 54 -135 l37 -90 -46 -111 c-25 -61 -45 -117
-45 -124 0 -31 -21 12 -80 160 -33 85 -67 169 -74 185 -8 17 -48 116 -89 220
l-76 190 -6 250 c-4 138 -9 253 -12 258 -2 4 0 7 4 7 5 0 15 -17 22 -37z
m1426 -20 c-2 -32 -6 -148 -9 -258 -6 -193 -12 -236 -42 -293 -8 -15 -14 -32
-14 -38 0 -6 -6 -24 -14 -40 -8 -16 -65 -155 -126 -309 -62 -154 -113 -281
-114 -283 -4 -4 -99 238 -99 251 0 6 89 230 198 497 109 267 201 495 206 508
13 34 16 27 14 -35z m340 -583 l-55 -135 -61 -3 -61 -3 5 113 4 113 109 270
109 270 3 -245 2 -245 -55 -135z m-2160 588 c4 -13 12 -36 20 -53 7 -16 43
-106 80 -200 37 -93 75 -188 85 -210 13 -29 18 -69 19 -144 1 -58 4 -108 7
-113 3 -4 -23 -8 -58 -8 l-64 0 -56 138 -55 137 0 238 c1 220 6 271 22 215z
m-306 -253 c28 -71 57 -139 63 -149 24 -44 31 -87 33 -207 l1 -125 -68 -1
c-37 -1 -70 2 -72 5 -2 4 -7 115 -11 247 -4 132 -8 271 -9 308 -1 37 1 64 4
60 4 -4 31 -66 59 -138z m2865 13 c-11 -313 -13 -366 -13 -430 l-1 -66 -73 1
-72 1 1 125 2 126 77 188 c43 103 79 187 81 187 1 0 1 -60 -2 -132z m-1410
-620 l46 -118 -41 -102 c-63 -158 -55 -156 -104 -32 -24 60 -45 116 -46 124
-4 19 87 258 95 249 2 -2 24 -57 50 -121z m-946 -68 c4 0 8 -20 8 -45 2 -54 1
-54 -25 9 -18 41 -19 47 -5 42 8 -3 19 -6 22 -6z m1804 -37 c-9 -23 -19 -43
-22 -43 -8 0 -6 75 3 81 4 3 14 6 21 6 11 0 11 -9 -2 -44z m-2218 -290 c0
-181 -2 -333 -3 -340 -1 -11 -86 -16 -121 -7 -13 3 -15 48 -13 336 0 183 2
334 2 336 1 1 31 2 69 2 l67 0 -1 -327z m2751 -13 l0 -335 -70 0 -69 0 -1 320
c0 176 1 328 3 338 4 15 14 17 71 15 l66 -3 0 -335z m-325 -15 c0 -179 -3
-324 -7 -324 -41 7 -41 7 -39 -186 l1 -186 -95 3 -95 3 2 230 1 230 75 180
c41 99 92 224 113 277 22 54 40 98 42 98 1 0 2 -146 2 -325z m-2114 30 l110
-274 0 -223 -1 -223 -92 -3 -93 -3 0 186 c0 116 -4 185 -10 186 -5 1 -16 2
-22 3 -10 1 -13 72 -14 319 0 174 2 314 5 311 3 -3 56 -129 117 -279z m508
-267 c108 -268 196 -491 196 -496 0 -4 -35 -22 -77 -40 -61 -25 -80 -29 -89
-19 -6 6 -62 138 -124 292 l-114 280 -2 249 c-1 137 2 242 6 235 5 -8 96 -233
204 -501z m1120 -128 c-36 -91 -72 -178 -79 -195 -7 -16 -32 -77 -55 -135 -23
-58 -43 -106 -45 -108 -2 -3 -157 56 -163 62 -2 3 290 739 322 811 7 17 29 69
47 117 l34 87 3 -237 2 -237 -66 -165z m-807 337 c-1 -5 -13 0 -26 10 -21 17
-22 22 -11 43 l12 23 14 -33 c8 -18 13 -38 11 -43z m391 45 c9 -26 7 -29 -20
-40 -25 -9 -29 -9 -24 4 3 9 9 27 12 40 8 32 20 30 32 -4z m-480 -223 c-21
-14 -35 -10 -41 10 -4 17 -2 18 25 9 22 -8 26 -13 16 -19z m566 7 c-6 -17 -25
-21 -38 -9 -3 4 4 12 16 19 27 14 31 13 22 -10z m-1609 -400 l0 -91 -70 0 -70
0 0 85 c0 47 4 88 9 91 4 4 36 6 70 6 l62 -1 -1 -90z m1350 52 c13 -34 14 -43
3 -54 -17 -16 -45 -19 -80 -10 -32 9 -33 13 -13 64 13 32 21 39 45 40 24 0 31
-5 45 -40z m1401 -55 l0 -94 -70 3 -70 3 -1 80 c-1 44 1 85 2 90 2 6 34 11 71
12 l68 0 0 -94z m-1417 -232 c11 -7 11 -17 -4 -60 -9 -28 -18 -51 -21 -51 -4
0 -27 53 -38 88 -5 15 -2 22 11 25 29 8 37 7 52 -2z m-1713 -54 c8 -8 11 -156
3 -169 -5 -8 -126 -14 -174 -9 -9 1 -11 87 -6 168 1 6 9 13 18 15 29 5 152 2
159 -5z m420 0 c9 -8 11 -156 3 -169 -4 -6 -52 -11 -115 -12 l-109 0 -3 91 -3
92 28 3 c46 5 193 1 199 -5z m370 4 c7 -1 10 -33 10 -91 0 -102 11 -92 -106
-92 -36 0 -68 1 -72 1 -5 1 -8 41 -8 90 0 76 3 90 17 93 13 2 108 2 159 -1z
m1949 0 c19 -1 20 -7 18 -87 -1 -47 -4 -88 -7 -91 -4 -5 -119 -7 -166 -4 -13
1 -16 16 -14 85 1 46 4 88 7 93 4 7 70 8 162 4z m435 -3 c4 -49 1 -171 -4
-175 -3 -3 -55 -6 -116 -7 l-110 -1 0 92 c0 78 3 92 17 95 34 6 213 3 213 -4z
m361 3 c23 -1 22 -181 -1 -182 -8 0 -50 -1 -93 -2 l-77 -2 0 92 0 92 28 3 c23
3 94 2 143 -1z m-2104 -116 c1 -36 -3 -65 -8 -66 -5 0 -22 -1 -39 -1 -16 0
-34 1 -40 1 -9 1 -40 64 -40 82 0 7 94 47 116 48 6 1 10 -26 11 -64z m577 44
c31 -12 56 -27 56 -33 -1 -6 -9 -26 -18 -45 -17 -34 -31 -39 -100 -32 -11 1
-12 131 -1 131 4 0 32 -10 63 -21z"/>
</g>
</svg>
