<svg width="75" height="75" viewBox="0 0 75 75" stroke="currentColor" stroke-width="2" fill="none" xmlns="http://www.w3.org/2000/svg">
<path d="M22.3906 20.875V16.875H16.4538L18.6834 22.3772L22.3906 20.875ZM26.7734 20.875L30.485 19.3835L29.4769 16.875H26.7734V20.875ZM37.9531 48.6953L34.2416 50.1868L37.957 59.4325L41.6657 50.1841L37.9531 48.6953ZM49.1094 20.875V16.875H46.4038L45.3968 19.3862L49.1094 20.875ZM53.5156 20.875L57.221 22.3816L59.46 16.875H53.5156V20.875ZM39.6406 55V59H42.3322L43.346 56.5066L39.6406 55ZM36.2188 55L32.5116 56.5022L33.5237 59H36.2188V55ZM20.9609 20.875V16.875H16.9609V20.875H20.9609ZM24.8281 20.875L28.8263 20.7534L28.7084 16.875H24.8281V20.875ZM25.4609 41.6875H29.4609V41.6267L29.4591 41.5659L25.4609 41.6875ZM25.4609 55V59H29.4609V55H25.4609ZM20.9609 55H16.9609V59H20.9609V55ZM51.0547 20.875V16.875H47.1745L47.0565 20.7534L51.0547 20.875ZM54.9219 20.875H58.9219V16.875H54.9219V20.875ZM54.9219 55V59H58.9219V55H54.9219ZM50.4219 55H46.4219V59H50.4219V55ZM50.4219 41.6875L46.4237 41.5659L46.4219 41.6267V41.6875H50.4219ZM22.3906 24.875H26.7734V16.875H22.3906V24.875ZM23.0619 22.3665L34.2416 50.1868L41.6647 47.2038L30.485 19.3835L23.0619 22.3665ZM41.6657 50.1841L52.822 22.3638L45.3968 19.3862L34.2405 47.2065L41.6657 50.1841ZM49.1094 24.875H53.5156V16.875H49.1094V24.875ZM49.8102 19.3684L35.9352 53.4934L43.346 56.5066L57.221 22.3816L49.8102 19.3684ZM39.6406 51H36.2188V59H39.6406V51ZM39.9259 53.4978L26.0978 19.3728L18.6834 22.3772L32.5116 56.5022L39.9259 53.4978ZM20.9609 24.875H24.8281V16.875H20.9609V24.875ZM20.83 20.9966L21.4628 41.8091L29.4591 41.5659L28.8263 20.7534L20.83 20.9966ZM21.4609 41.6875V55H29.4609V41.6875H21.4609ZM25.4609 51H20.9609V59H25.4609V51ZM24.9609 55V20.875H16.9609V55H24.9609ZM51.0547 24.875H54.9219V16.875H51.0547V24.875ZM50.9219 20.875V55H58.9219V20.875H50.9219ZM54.9219 51H50.4219V59H54.9219V51ZM54.4219 55V41.6875H46.4219V55H54.4219ZM54.42 41.8091L55.0528 20.9966L47.0565 20.7534L46.4237 41.5659L54.42 41.8091Z" />
<circle cx="37.5" cy="37.5" r="35.5" />
</svg>
